{"asset":{"version":"2.0","generator":"Blockbench 4.12.1 glTF exporter"},"scenes":[{"nodes":[0,1,2,3],"name":"blockbench_export"}],"scene":0,"nodes":[{"name":"Body","mesh":0},{"name":"Barrer1","mesh":1},{"translation":[1.1875,0.625,0],"name":"cube","mesh":2},{"translation":[0.4375,0.6875,0],"name":"cube","mesh":3}],"bufferViews":[{"buffer":0,"byteOffset":0,"byteLength":3024,"target":34962,"byteStride":12},{"buffer":0,"byteOffset":3024,"byteLength":3024,"target":34962,"byteStride":12},{"buffer":0,"byteOffset":6048,"byteLength":2016,"target":34962,"byteStride":8},{"buffer":0,"byteOffset":8064,"byteLength":744,"target":34963},{"buffer":0,"byteOffset":8808,"byteLength":384,"target":34962,"byteStride":12},{"buffer":0,"byteOffset":9192,"byteLength":384,"target":34962,"byteStride":12},{"buffer":0,"byteOffset":9576,"byteLength":256,"target":34962,"byteStride":8},{"buffer":0,"byteOffset":9832,"byteLength":96,"target":34963},{"buffer":0,"byteOffset":9928,"byteLength":288,"target":34962,"byteStride":12},{"buffer":0,"byteOffset":10216,"byteLength":288,"target":34962,"byteStride":12},{"buffer":0,"byteOffset":10504,"byteLength":192,"target":34962,"byteStride":8},{"buffer":0,"byteOffset":10696,"byteLength":72,"target":34963},{"buffer":0,"byteOffset":10768,"byteLength":408,"target":34962,"byteStride":12},{"buffer":0,"byteOffset":11176,"byteLength":408,"target":34962,"byteStride":12},{"buffer":0,"byteOffset":11584,"byteLength":272,"target":34962,"byteStride":8},{"buffer":0,"byteOffset":11856,"byteLength":96,"target":34963}],"buffers":[{"byteLength":11952,"uri":"data:application/octet-stream;base64,"}],"accessors":[{"bufferView":0,"componentType":5126,"count":252,"max":[3.8139090538024902,1.1783779859542847,0.22164000570774078],"min":[-0.762391984462738,-1.1268850564956665,-0.22164000570774078],"type":"VEC3"},{"bufferView":1,"componentType":5126,"count":252,"max":[1,1,1],"min":[-1,-1,-1],"type":"VEC3"},{"bufferView":2,"componentType":5126,"count":252,"max":[0.9877089858055115,0.5301802158355713],"min":[0.012121513485908508,0.0234375],"type":"VEC2"},{"bufferView":3,"componentType":5123,"count":372,"max":[251],"min":[0],"type":"SCALAR"},{"bufferView":4,"componentType":5126,"count":32,"max":[3.8139090538024902,1.0402129888534546,0.1232990026473999],"min":[1.5496909618377686,0.6557279825210571,-0.1232990026473999],"type":"VEC3"},{"bufferView":5,"componentType":5126,"count":32,"max":[0.7235957980155945,1,1],"min":[0,-1,-1],"type":"VEC3"},{"bufferView":6,"componentType":5126,"count":32,"max":[0.6273881793022156,0.15031546354293823],"min":[0.34453728795051575,0.10223233699798584],"type":"VEC2"},{"bufferView":7,"componentType":5123,"count":48,"max":[31],"min":[0],"type":"SCALAR"},{"bufferView":8,"componentType":5126,"count":24,"max":[0.4000000059604645,0.4160533845424652,0.3535533845424652],"min":[-0.4000000059604645,-0.2910533845424652,-0.3535533845424652],"type":"VEC3"},{"bufferView":9,"componentType":5126,"count":24,"max":[1,0.7071067690849304,0.7071067690849304],"min":[-1,-0.7071067690849304,-0.7071067690849304],"type":"VEC3"},{"bufferView":10,"componentType":5126,"count":24,"max":[0.6606553196907043,0.45005643367767334],"min":[0.03248169273138046,0.0703125],"type":"VEC2"},{"bufferView":11,"componentType":5123,"count":36,"max":[23],"min":[0],"type":"SCALAR"},{"bufferView":12,"componentType":5126,"count":34,"max":[0.29770427942276,0.376833975315094,0.0625],"min":[-0.32163161039352417,-0.11020426452159882,-0.0625],"type":"VEC3"},{"bufferView":13,"componentType":5126,"count":34,"max":[0.789997935295105,0.9944127798080444,1],"min":[-0.9858059883117676,-0.8135851621627808,-1],"type":"VEC3"},{"bufferView":14,"componentType":5126,"count":34,"max":[0.7887973785400391,0.09990739822387695],"min":[0.7168973684310913,0.053906261920928955],"type":"VEC2"},{"bufferView":15,"componentType":5123,"count":48,"max":[33],"min":[0],"type":"SCALAR"}],"materials":[{"pbrMetallicRoughness":{"metallicFactor":0,"roughnessFactor":1,"baseColorTexture":{"index":0}},"alphaMode":"MASK","alphaCutoff":0.05,"doubleSided":true}],"textures":[{"sampler":0,"source":0,"name":"Revolver_Low.png"}],"samplers":[{"magFilter":9728,"minFilter":9728,"wrapS":33071,"wrapT":33071}],"images":[{"mimeType":"image/png","uri":"data:image/png;base64,"}],"meshes":[{"primitives":[{"mode":4,"attributes":{"POSITION":0,"NORMAL":1,"TEXCOORD_0":2},"indices":3,"material":0}]},{"primitives":[{"mode":4,"attributes":{"POSITION":4,"NORMAL":5,"TEXCOORD_0":6},"indices":7,"material":0}]},{"primitives":[{"mode":4,"attributes":{"POSITION":8,"NORMAL":9,"TEXCOORD_0":10},"indices":11,"material":0}]},{"primitives":[{"mode":4,"attributes":{"POSITION":12,"NORMAL":13,"TEXCOORD_0":14},"indices":15,"material":0}]}]}